<svg xmlns="http://www.w3.org/2000/svg" xmlns:xlink="http://www.w3.org/1999/xlink" width="1920" zoomAndPan="magnify" viewBox="0 0 1440 809.999993" height="1080" preserveAspectRatio="xMidYMid meet" version="1.0"><defs><clipPath id="4d6e6e5fde"><path d="M 25.25 164 L 1189 164 L 1189 693 L 25.25 693 Z M 25.25 164 " clip-rule="nonzero"/></clipPath><clipPath id="c25c6e4df6"><path d="M 1418.328125 791.589844 L 1429.578125 791.589844 L 1429.578125 801.339844 L 1418.328125 801.339844 Z M 1418.328125 791.589844 " clip-rule="nonzero"/></clipPath></defs><g clip-path="url(#4d6e6e5fde)"><path fill="#00adef" d="M 1090.953125 692.648438 C 1277.019531 490.335938 1160.59375 144.449219 1034.671875 165.457031 C 911.859375 185.953125 910.167969 409.535156 785.65625 409.535156 C 661.152344 409.535156 661.152344 165.457031 536.652344 165.457031 C 388.042969 165.457031 318.402344 586.054688 25.347656 639.496094 C 374.984375 639.496094 412.148438 323.476562 536.652344 323.476562 C 661.152344 323.476562 661.152344 596.933594 785.65625 596.933594 C 910.167969 596.933594 910.167969 323.476562 1034.671875 323.476562 C 1159.179688 323.476562 1154.226562 593.523438 1090.953125 692.648438 " fill-opacity="1" fill-rule="nonzero"/></g><g clip-path="url(#c25c6e4df6)"><path fill="#000000" d="M 1428.804688 800.910156 L 1428.804688 791.96875 L 1429.578125 791.96875 L 1429.578125 791.589844 L 1427.28125 791.589844 L 1423.957031 798.984375 L 1420.648438 791.589844 L 1418.347656 791.589844 L 1418.347656 791.96875 L 1419.15625 791.96875 L 1419.15625 800.960938 L 1418.332031 800.960938 L 1418.332031 801.339844 L 1420.515625 801.339844 L 1420.515625 800.960938 L 1419.730469 800.960938 L 1419.730469 792.949219 L 1423.484375 801.339844 L 1427.28125 792.871094 L 1427.28125 800.910156 L 1426.503906 800.910156 L 1426.5 801.339844 L 1429.574219 801.339844 L 1429.578125 800.910156 Z M 1428.804688 800.910156 " fill-opacity="1" fill-rule="nonzero"/></g></svg>