<svg xmlns="http://www.w3.org/2000/svg" xmlns:xlink="http://www.w3.org/1999/xlink" width="1080" zoomAndPan="magnify" viewBox="0 0 810 1012.49997" height="1350" preserveAspectRatio="xMidYMid meet" version="1.0"><defs><clipPath id="47e6c45d81"><path d="M 0.199219 331 L 790 331 L 790 694.886719 L 0.199219 694.886719 Z M 0.199219 331 " clip-rule="nonzero"/></clipPath><clipPath id="cde0012b99"><path d="M 775.46875 981.027344 L 789.710938 981.027344 L 789.710938 993.773438 L 775.46875 993.773438 Z M 775.46875 981.027344 " clip-rule="nonzero"/></clipPath></defs><g clip-path="url(#47e6c45d81)"><path fill="#00adef" d="M 722.640625 694.585938 C 850.671875 555.355469 770.558594 317.324219 683.914062 331.777344 C 599.40625 345.882812 598.242188 499.75 512.566406 499.75 C 426.898438 499.75 426.898438 331.777344 341.230469 331.777344 C 238.96875 331.777344 191.050781 621.226562 -10.597656 658.007812 C 229.984375 658.007812 255.558594 440.527344 341.230469 440.527344 C 426.898438 440.527344 426.898438 628.714844 512.566406 628.714844 C 598.242188 628.714844 598.242188 440.527344 683.914062 440.527344 C 769.589844 440.527344 766.179688 626.367188 722.640625 694.585938 " fill-opacity="1" fill-rule="nonzero"/></g><g clip-path="url(#cde0012b99)"><path fill="#000000" d="M 788.730469 993.210938 L 788.730469 981.523438 L 789.710938 981.523438 L 789.710938 981.027344 L 786.800781 981.027344 L 782.59375 990.691406 L 778.40625 981.027344 L 775.492188 981.027344 L 775.492188 981.523438 L 776.519531 981.523438 L 776.519531 993.277344 L 775.472656 993.277344 L 775.472656 993.773438 L 778.238281 993.773438 L 778.238281 993.277344 L 777.242188 993.277344 L 777.242188 982.804688 L 781.996094 993.773438 L 786.800781 982.703125 L 786.800781 993.210938 L 785.820312 993.210938 L 785.8125 993.773438 L 789.703125 993.773438 L 789.710938 993.210938 Z M 788.730469 993.210938 " fill-opacity="1" fill-rule="nonzero"/></g></svg>