<svg xmlns="http://www.w3.org/2000/svg" xmlns:xlink="http://www.w3.org/1999/xlink" width="1920" zoomAndPan="magnify" viewBox="0 0 1440 809.999993" height="1080" preserveAspectRatio="xMidYMid meet" version="1.0"><defs><clipPath id="51e956164f"><path d="M 128.15625 164 L 1228 164 L 1228 664 L 128.15625 664 Z M 128.15625 164 " clip-rule="nonzero"/></clipPath><clipPath id="d3226012fb"><path d="M 1418.328125 791.589844 L 1429.578125 791.589844 L 1429.578125 801.339844 L 1418.328125 801.339844 Z M 1418.328125 791.589844 " clip-rule="nonzero"/></clipPath></defs><g clip-path="url(#51e956164f)"><path fill="#00adef" d="M 1135.753906 663.914062 C 1311.671875 472.660156 1201.59375 145.675781 1082.539062 165.53125 C 966.421875 184.910156 964.824219 396.269531 847.101562 396.269531 C 729.386719 396.269531 729.386719 165.53125 611.675781 165.53125 C 471.167969 165.53125 405.324219 563.144531 128.246094 613.664062 C 458.820312 613.664062 493.960938 314.917969 611.675781 314.917969 C 729.386719 314.917969 729.386719 573.425781 847.101562 573.425781 C 964.824219 573.425781 964.824219 314.917969 1082.539062 314.917969 C 1200.261719 314.917969 1195.574219 570.207031 1135.753906 663.914062 " fill-opacity="1" fill-rule="nonzero"/></g><g clip-path="url(#d3226012fb)"><path fill="#000000" d="M 1428.804688 800.910156 L 1428.804688 791.96875 L 1429.578125 791.96875 L 1429.578125 791.589844 L 1427.28125 791.589844 L 1423.957031 798.984375 L 1420.648438 791.589844 L 1418.347656 791.589844 L 1418.347656 791.96875 L 1419.15625 791.96875 L 1419.15625 800.960938 L 1418.332031 800.960938 L 1418.332031 801.339844 L 1420.515625 801.339844 L 1420.515625 800.960938 L 1419.730469 800.960938 L 1419.730469 792.949219 L 1423.484375 801.339844 L 1427.28125 792.871094 L 1427.28125 800.910156 L 1426.503906 800.910156 L 1426.5 801.339844 L 1429.574219 801.339844 L 1429.578125 800.910156 Z M 1428.804688 800.910156 " fill-opacity="1" fill-rule="nonzero"/></g></svg>